<svg width="396" height="396" viewBox="0 0 396 396" fill="none" xmlns="http://www.w3.org/2000/svg">
<g filter="url(#filter0_d_242_721)">
<path d="M195 3L226.839 34.9358L268.475 17.6151L285.669 59.3042L330.764 59.2355L330.696 104.331L372.385 121.525L355.064 163.161L387 195L355.064 226.839L372.385 268.475L330.696 285.669L330.764 330.764L285.669 330.696L268.475 372.385L226.839 355.064L195 387L163.161 355.064L121.525 372.385L104.331 330.696L59.2355 330.764L59.3042 285.669L17.6151 268.475L34.9358 226.839L3 195L34.9358 163.161L17.6151 121.525L59.3042 104.331L59.2355 59.2355L104.331 59.3042L121.525 17.6151L163.161 34.9358L195 3Z" fill="#F16858"/>
<path d="M195 3L226.839 34.9358L268.475 17.6151L285.669 59.3042L330.764 59.2355L330.696 104.331L372.385 121.525L355.064 163.161L387 195L355.064 226.839L372.385 268.475L330.696 285.669L330.764 330.764L285.669 330.696L268.475 372.385L226.839 355.064L195 387L163.161 355.064L121.525 372.385L104.331 330.696L59.2355 330.764L59.3042 285.669L17.6151 268.475L34.9358 226.839L3 195L34.9358 163.161L17.6151 121.525L59.3042 104.331L59.2355 59.2355L104.331 59.3042L121.525 17.6151L163.161 34.9358L195 3Z" stroke="black" stroke-width="4"/>
</g>
<defs>
<filter id="filter0_d_242_721" x="0.167255" y="0.167236" width="394.892" height="394.892" filterUnits="userSpaceOnUse" color-interpolation-filters="sRGB">
<feFlood flood-opacity="0" result="BackgroundImageFix"/>
<feColorMatrix in="SourceAlpha" type="matrix" values="0 0 0 0 0 0 0 0 0 0 0 0 0 0 0 0 0 0 127 0" result="hardAlpha"/>
<feOffset dx="5.22639" dy="5.22639"/>
<feColorMatrix type="matrix" values="0 0 0 0 0 0 0 0 0 0 0 0 0 0 0 0 0 0 0.25 0"/>
<feBlend mode="normal" in2="BackgroundImageFix" result="effect1_dropShadow_242_721"/>
<feBlend mode="normal" in="SourceGraphic" in2="effect1_dropShadow_242_721" result="shape"/>
</filter>
</defs>
</svg>
